<svg id="レイヤー_1" data-name="レイヤー 1" xmlns="http://www.w3.org/2000/svg" viewBox="0 0 256 30"><defs><style>.cls-1{fill:#0050ff;}.cls-2{fill:#2b2b2b;}</style></defs><title>topLogo</title><path class="cls-1" d="M251.68,29.06a.09.09,0,0,1-.07.06h0s-.05,0-.07-.06l-4.23-9.94a.07.07,0,0,1,0-.09l.13,0a.06.06,0,0,1,.07,0L248.77,22h5.73L255.76,19a.06.06,0,0,1,.07,0l.12,0a.07.07,0,0,1,.05.09Zm-2.8-6.86,2.72,6.42,2.78-6.42Z"/><path class="cls-1" d="M242.23,28.73a.1.1,0,0,1-.09.1h-.06a.1.1,0,0,1-.1-.1V24.24h-6.89v4.49a.1.1,0,0,1-.1.1h-.05a.1.1,0,0,1-.1-.1V19.12a.09.09,0,0,1,.1-.1H235a.09.09,0,0,1,.1.1V24H242V19.12a.09.09,0,0,1,.1-.1h.06a.09.09,0,0,1,.09.1Z"/><path class="cls-1" d="M231.55,28.73a.1.1,0,0,1-.1.1h0a.1.1,0,0,1-.1-.1V19.12a.09.09,0,0,1,.1-.1h0a.09.09,0,0,1,.1.1Z"/><path class="cls-1" d="M227.46,28.75a.09.09,0,0,1-.1.1H224a3,3,0,0,1-.64-6l-2.19-3.66a.07.07,0,0,1,0-.11l.12-.07a.1.1,0,0,1,.09,0l2.22,3.76a2.3,2.3,0,0,1,.37,0h3.19V19.14a.09.09,0,0,1,.08-.1h.06a.09.09,0,0,1,.1.1ZM224,23a2.86,2.86,0,0,0-2.94,2.83A2.81,2.81,0,0,0,224,28.6h3.18V23Z"/><path class="cls-1" d="M213.94,29A5,5,0,1,1,219,23.91,5,5,0,0,1,213.94,29Zm0-9.84a4.79,4.79,0,1,0,4.81,4.78A4.76,4.76,0,0,0,213.94,19.13Z"/><path class="cls-1" d="M207,28.73a.11.11,0,0,1-.1.1h-.06a.11.11,0,0,1-.1-.1V24.06l-5.21,4.75a.1.1,0,0,1-.14,0l0,0a.1.1,0,0,1,0-.14l5.17-4.69-5.31-4.77c0-.05-.08-.09,0-.15l.06-.06s.07,0,.13,0l5.37,4.82V19.12a.1.1,0,0,1,.1-.1h.06a.1.1,0,0,1,.1.1Z"/><path class="cls-1" d="M198.09,28.73a.1.1,0,0,1-.1.1h-.05a.1.1,0,0,1-.1-.1V19.12a.09.09,0,0,1,.1-.1H198a.09.09,0,0,1,.1.1Z"/><path class="cls-1" d="M191.26,29a.1.1,0,0,1-.18.05l-7.24-9.65v9.36a.11.11,0,0,1-.1.1h-.06a.1.1,0,0,1-.1-.1V18.91a.1.1,0,0,1,.18-.06L191,28.5V19.12a.09.09,0,0,1,.09-.1h.06a.09.09,0,0,1,.1.1Z"/><path class="cls-1" d="M177.22,29.06a.09.09,0,0,1-.07.06h0s-.05,0-.07-.06l-4.23-9.94a.07.07,0,0,1,0-.09l.13,0a.06.06,0,0,1,.07,0L174.31,22H180L181.3,19s0-.05.07,0l.12,0s.06,0,0,.09Zm-2.8-6.86,2.72,6.42,2.78-6.42Z"/><path class="cls-1" d="M171.16,28.77a.09.09,0,0,1-.09.1H171a.09.09,0,0,1-.1-.1V24.1l-5.21,4.75a.08.08,0,0,1-.14,0l0,0a.1.1,0,0,1,0-.14L170.69,24l-5.31-4.76c-.06-.06-.09-.1,0-.16l.06,0s.07,0,.12,0l5.38,4.82V19.16a.09.09,0,0,1,.1-.1h.06a.09.09,0,0,1,.09.1Z"/><path class="cls-1" d="M159.24,28.9s0,.06-.07.06h0a.09.09,0,0,1-.07-.06L154.84,19a.07.07,0,0,1,0-.09l.13,0s.05,0,.07,0l1.25,2.93h5.72l1.26-2.93s0-.05.07,0l.13,0s.06.05,0,.09ZM156.44,22l2.71,6.42L161.94,22Z"/><path class="cls-1" d="M151.66,28.57h2.92a.1.1,0,0,1,.09.1v.06a.1.1,0,0,1-.09.1h-6.11a.1.1,0,0,1-.1-.1v-.06a.1.1,0,0,1,.1-.1h2.94V19.12a.09.09,0,0,1,.1-.1h.05a.09.09,0,0,1,.1.1Z"/><path class="cls-1" d="M143.32,29.21s0,.06-.07.06h0a.09.09,0,0,1-.07-.06l-4.23-9.94c0-.05,0-.07,0-.09l.13,0s0,0,.07,0l1.24,2.93h5.73l1.26-2.93s0-.05.07,0l.13,0s.06,0,0,.09Zm-2.8-6.86,2.71,6.41L146,22.35Z"/><path class="cls-1" d="M137.28,29a.1.1,0,0,1-.19.05l-7.24-9.65v9.36a.1.1,0,0,1-.1.1h-.05a.1.1,0,0,1-.1-.1V18.91a.1.1,0,0,1,.18-.06L137,28.5V19.12a.1.1,0,0,1,.1-.1h.06a.1.1,0,0,1,.1.1Z"/><path class="cls-1" d="M126.25,29a.09.09,0,0,1-.1.09h-.05A.09.09,0,0,1,126,29V19.4a.09.09,0,0,1,.1-.1h.05a.09.09,0,0,1,.1.1Z"/><path class="cls-1" d="M254.6,10.76a.1.1,0,0,1-.09.1h-2.8a4.9,4.9,0,1,1,0-9.8h2.8a.1.1,0,0,1,.09.09Zm-2.89-9.45a4.65,4.65,0,1,0,0,9.3h2.65V1.31Z"/><path class="cls-1" d="M244.43,10.86a.1.1,0,0,1-.1.1h-5.7a.1.1,0,0,1-.09-.1V10.8a.1.1,0,0,1,.09-.1h5.55V6.38h-4.87a.1.1,0,0,1-.1-.1V6.22a.1.1,0,0,1,.1-.1h4.87V1.4h-5.55a.09.09,0,0,1-.09-.09V1.25a.09.09,0,0,1,.09-.1h5.7a.09.09,0,0,1,.1.1Z"/><path class="cls-1" d="M236,10.79a.09.09,0,0,1-.1.09H232.6a3,3,0,0,1-.64-6l-2.19-3.66a.07.07,0,0,1,0-.11l.12-.07s.07,0,.09,0l2.22,3.75h3.56V1.18a.09.09,0,0,1,.08-.1h.06a.09.09,0,0,1,.1.1Zm-3.43-5.73a2.85,2.85,0,0,0-2.94,2.83,2.81,2.81,0,0,0,2.95,2.74h3.18V5.06Z"/><path class="cls-1" d="M226.69,10.7a.09.09,0,0,1-.09.1h-.06a.09.09,0,0,1-.1-.1V1.1a.09.09,0,0,1,.1-.1h.06a.09.09,0,0,1,.09.1Z"/><path class="cls-1" d="M224.36,10.73a.05.05,0,0,1,0,.08l-.12,0s-.06,0-.07,0l-4.07-9.57-4.16,9.57s0,.06-.07,0l-.12,0a.06.06,0,0,1-.05-.08L220,.8c0-.09.12-.09.17,0Z"/><path class="cls-1" d="M213.39,10.73a.11.11,0,0,1-.1.1h-5.7a.1.1,0,0,1-.1-.1v-.06a.1.1,0,0,1,.1-.1h5.54V6.24h-4.87a.09.09,0,0,1-.1-.09V6.09a.09.09,0,0,1,.1-.1h4.87V1.27h-5.54a.09.09,0,0,1-.1-.1v0a.09.09,0,0,1,.1-.1h5.7a.1.1,0,0,1,.1.1Z"/><path class="cls-1" d="M205.13,10.73a.1.1,0,0,1-.1.1h-3.32a3,3,0,0,1-.64-6l-2.19-3.66a.08.08,0,0,1,0-.11L199,1s.07,0,.09,0l2.23,3.75h3.55V1.12A.1.1,0,0,1,205,1H205a.09.09,0,0,1,.1.1ZM201.7,5a2.85,2.85,0,0,0-2.94,2.83,2.81,2.81,0,0,0,3,2.74h3.18V5Z"/><path class="cls-1" d="M192.71,11.06a.09.09,0,0,1-.07.06h0s-.05,0-.07-.06l-4.23-9.94a.07.07,0,0,1,0-.09l.13,0a.06.06,0,0,1,.07,0L189.8,4h5.73L196.79,1a.06.06,0,0,1,.07,0L197,1a.07.07,0,0,1,.05.09Zm-2.8-6.86,2.72,6.42,2.78-6.42Z"/><path class="cls-1" d="M186.43,10.73a.1.1,0,0,1-.1.1h-2.89c-1.75,0-2.94-.89-2.94-2.48a2.29,2.29,0,0,1,1.78-2.27,2.34,2.34,0,0,1-2.09-2.43c0-1.57,1.29-2.63,3.13-2.63h3a.09.09,0,0,1,.1.1Zm-3-4.57c-1.56,0-2.66.81-2.66,2.19s1.07,2.22,2.68,2.22h2.74V6.16Zm-.1-4.89c-1.71,0-2.87,1-2.87,2.38s1.13,2.26,2.7,2.26h3V1.27Z"/><path class="cls-1" d="M177.82,10.71a.09.09,0,0,1-.1.1h-.05a.09.09,0,0,1-.09-.1V1.26h-4.89a.1.1,0,0,1-.1-.1V1.1a.1.1,0,0,1,.1-.09h5a.09.09,0,0,1,.1.09Z"/><path class="cls-1" d="M170.91,10.73a.1.1,0,0,1-.1.1h-5.7a.11.11,0,0,1-.1-.1v-.06a.11.11,0,0,1,.1-.1h5.55V6.24h-4.88a.09.09,0,0,1-.09-.09V6.09a.09.09,0,0,1,.09-.1h4.88V1.27h-5.55a.1.1,0,0,1-.1-.1v0a.1.1,0,0,1,.1-.1h5.7a.09.09,0,0,1,.1.1Z"/><path class="cls-2" d="M27.2,10.13A29.77,29.77,0,0,0,24.78,7l-2-2c-.55-.59-3.79-3.65-4.13-4S18,.37,17.59,0h-4.5c-.05,1.3.05,2.77.05,2.88,0,.91.16,1.13.27,2.91.05.8,0,.94,0,1h0C13,7,9.93,3.74,9.51,4c-.21.14.12,1.24.28,1.78l0,.06.17.6c.06.26.1.39.13.55.12.62.05.82,0,1L10,8c-.51.55-1.12.42-2.7,1.21h0a9.16,9.16,0,0,0-1.15.62,8.91,8.91,0,0,0-1.26,1,5.57,5.57,0,0,0-1.54,2.46A18.24,18.24,0,0,0,2.92,17a1.64,1.64,0,0,1-.21.69,2.33,2.33,0,0,1-.57.6l-.1.07A5.3,5.3,0,0,0,.09,20.62,3,3,0,0,0,0,21.77a3.53,3.53,0,0,0,.47,1.36A22.36,22.36,0,0,0,2,24.89c.09.11.55.55.56.56a15,15,0,0,0,3.13,2.12A7.62,7.62,0,0,1,7.85,29c.07.07.16,0,.7,1h17l.13-.13a17.2,17.2,0,0,0,1.56-1.71Z"/><path class="cls-2" d="M30.56,10.5l4.26-9.42a.27.27,0,0,1,.24-.16h.14a.24.24,0,0,1,.24.16l4.23,9.42a.25.25,0,0,1-.24.37h-.56a.27.27,0,0,1-.24-.16l-1-2.31h-5l-1,2.31a.26.26,0,0,1-.24.16H30.8A.25.25,0,0,1,30.56,10.5Zm6.66-3c-.69-1.52-1.36-3.06-2-4.59h-.11L33,7.53Z"/><path class="cls-2" d="M44.3,1.33a.28.28,0,0,1,.27-.27h.54a.27.27,0,0,1,.27.27V5.42h5.68V1.33a.28.28,0,0,1,.27-.27h.55a.27.27,0,0,1,.26.27V10.6a.27.27,0,0,1-.26.27h-.55a.28.28,0,0,1-.27-.27V6.36H45.38V10.6a.27.27,0,0,1-.27.27h-.54a.28.28,0,0,1-.27-.27Z"/><path class="cls-2" d="M55,1.33a.27.27,0,0,1,.26-.27h.56a.28.28,0,0,1,.27.27V10.6a.28.28,0,0,1-.27.27h-.56A.27.27,0,0,1,55,10.6Z"/><path class="cls-2" d="M58.94,1.33a.28.28,0,0,1,.27-.27h3.63a3,3,0,0,1,3,3A3.12,3.12,0,0,1,63.82,6.9l1.92,3.56a.27.27,0,0,1-.24.41h-.72a.24.24,0,0,1-.22-.13L62.7,7H60V10.6a.27.27,0,0,1-.26.27h-.55a.28.28,0,0,1-.27-.27Zm3.83,4.78a2,2,0,0,0,2-2.05,2,2,0,0,0-2-2H60.05v4Z"/><path class="cls-2" d="M72.51.92a5,5,0,1,1-5,5.06A5,5,0,0,1,72.51.92Zm0,9.11a4.07,4.07,0,1,0-4.05-4A4.07,4.07,0,0,0,72.51,10Z"/><path class="cls-2" d="M79.69,1.4A.34.34,0,0,1,80,1.06h.4a.34.34,0,0,1,.34.34v4L85.14,1.2a.42.42,0,0,1,.27-.14h.68a.27.27,0,0,1,.17.49L81.83,5.69l4.64,4.74a.28.28,0,0,1-.24.44h-.71a.36.36,0,0,1-.25-.1l-4.5-4.69v4.45a.34.34,0,0,1-.34.34H80a.34.34,0,0,1-.34-.34Z"/><path class="cls-2" d="M88.34,1.33a.28.28,0,0,1,.27-.27h.56a.28.28,0,0,1,.27.27V10.6a.28.28,0,0,1-.27.27h-.56a.28.28,0,0,1-.27-.27Z"/><path class="cls-2" d="M95.4,1.17a.26.26,0,0,1,.26-.25H96l6.32,7.87h0V1.33a.27.27,0,0,1,.27-.27h.49a.27.27,0,0,1,.26.27v9.43a.26.26,0,0,1-.26.25h-.26L96.44,3h0V10.6a.27.27,0,0,1-.27.27h-.49a.27.27,0,0,1-.26-.27Z"/><path class="cls-2" d="M104.89,10.5l4.26-9.42a.24.24,0,0,1,.24-.16h.14a.24.24,0,0,1,.23.16L114,10.5a.24.24,0,0,1-.23.37h-.56a.26.26,0,0,1-.24-.16l-1-2.31h-5l-1,2.31a.27.27,0,0,1-.24.16h-.56A.25.25,0,0,1,104.89,10.5Zm6.65-3c-.68-1.52-1.36-3.06-2-4.59h-.11l-2,4.59Z"/><path class="cls-2" d="M115.52,1.4a.34.34,0,0,1,.33-.34h.41a.34.34,0,0,1,.33.34v4L121,1.2a.4.4,0,0,1,.26-.14h.69a.27.27,0,0,1,.17.49l-4.43,4.14,4.64,4.74a.28.28,0,0,1-.24.44h-.72a.41.41,0,0,1-.25-.1l-4.5-4.69v4.45a.34.34,0,0,1-.33.34h-.41a.34.34,0,0,1-.33-.34Z"/><path class="cls-2" d="M122.82,10.5l4.26-9.42a.24.24,0,0,1,.24-.16h.14a.24.24,0,0,1,.24.16l4.23,9.42a.25.25,0,0,1-.24.37h-.56a.26.26,0,0,1-.24-.16l-1-2.31h-5l-1,2.31a.26.26,0,0,1-.24.16h-.56A.25.25,0,0,1,122.82,10.5Zm6.66-3c-.69-1.52-1.36-3.06-2-4.59h-.11l-2,4.59Z"/><path class="cls-2" d="M134.84,2H132.4a.27.27,0,0,1-.27-.26V1.33a.28.28,0,0,1,.27-.27h5.94a.27.27,0,0,1,.26.27v.41a.26.26,0,0,1-.26.26H135.9v8.6a.28.28,0,0,1-.27.27h-.53a.27.27,0,0,1-.26-.27Z"/><path class="cls-2" d="M138.8,10.5l4.26-9.42a.24.24,0,0,1,.23-.16h.14a.24.24,0,0,1,.24.16l4.23,9.42a.25.25,0,0,1-.24.37h-.56a.25.25,0,0,1-.23-.16l-1-2.31h-5l-1,2.31a.25.25,0,0,1-.23.16H139A.25.25,0,0,1,138.8,10.5Zm6.65-3c-.69-1.52-1.36-3.06-2-4.59h-.12l-2,4.59Z"/><path class="cls-2" d="M149.42,1.17a.27.27,0,0,1,.27-.25H150l6.32,7.87h0V1.33a.27.27,0,0,1,.26-.27h.49a.28.28,0,0,1,.27.27v9.43a.27.27,0,0,1-.27.25h-.25l-6.43-8h0V10.6a.28.28,0,0,1-.27.27h-.49a.28.28,0,0,1-.27-.27Z"/><path class="cls-2" d="M160.26,1.33a.28.28,0,0,1,.27-.27h.56a.27.27,0,0,1,.26.27V10.6a.27.27,0,0,1-.26.27h-.56a.28.28,0,0,1-.27-.27Z"/><path class="cls-2" d="M31.91,19.33a.27.27,0,0,1,.25-.27H35.3a4.91,4.91,0,1,1,0,9.81H32.16a.27.27,0,0,1-.25-.27Zm3.17,8.57A3.82,3.82,0,0,0,39,24a3.81,3.81,0,0,0-4-3.93H33V27.9Z"/><path class="cls-2" d="M42.37,19.33a.27.27,0,0,1,.26-.27h5.52a.27.27,0,0,1,.27.27v.41a.26.26,0,0,1-.27.26h-4.7v3.42h4a.27.27,0,0,1,.26.27v.4a.26.26,0,0,1-.26.27h-4v3.57h4.7a.27.27,0,0,1,.27.27v.4a.27.27,0,0,1-.27.27H42.63a.27.27,0,0,1-.26-.27Z"/><path class="cls-2" d="M50.66,19.33a.27.27,0,0,1,.26-.27h3.63a3,3,0,0,1,3.05,3,3.12,3.12,0,0,1-2.07,2.85l1.92,3.56a.27.27,0,0,1-.24.41H56.5a.24.24,0,0,1-.23-.13L54.41,25H51.73V28.6a.27.27,0,0,1-.26.27h-.55a.27.27,0,0,1-.26-.27Zm3.82,4.78a2,2,0,1,0,0-4H51.76v4Z"/><path class="cls-2" d="M59.91,19.33a.28.28,0,0,1,.27-.27h.56a.27.27,0,0,1,.26.27V28.6a.27.27,0,0,1-.26.27h-.56a.28.28,0,0,1-.27-.27Z"/><path class="cls-2" d="M62.53,19.43a.25.25,0,0,1,.23-.37h.57a.25.25,0,0,1,.23.16l3.49,7.84h.06l3.49-7.84a.26.26,0,0,1,.23-.16h.56a.25.25,0,0,1,.24.37l-4.26,9.42a.25.25,0,0,1-.23.16H67a.28.28,0,0,1-.24-.16Z"/><path class="cls-2" d="M73.15,19.33a.28.28,0,0,1,.27-.27h5.52a.27.27,0,0,1,.26.27v.41a.26.26,0,0,1-.26.26H74.23v3.42h4a.28.28,0,0,1,.27.27v.4a.27.27,0,0,1-.27.27h-4v3.57h4.71a.27.27,0,0,1,.26.27v.4a.27.27,0,0,1-.26.27H73.42a.28.28,0,0,1-.27-.27Z"/><path class="cls-2" d="M81.44,19.33a.27.27,0,0,1,.27-.27h3.63a3,3,0,0,1,3,3,3.14,3.14,0,0,1-2.07,2.85l1.92,3.56a.27.27,0,0,1-.24.41h-.72a.24.24,0,0,1-.22-.13L85.2,25H82.52V28.6a.28.28,0,0,1-.27.27h-.54a.27.27,0,0,1-.27-.27Zm3.83,4.78a2,2,0,1,0,0-4H82.55v4Z"/><path class="cls-2" d="M89.35,28.5l4.26-9.42a.24.24,0,0,1,.24-.16H94a.27.27,0,0,1,.24.16l4.23,9.42a.25.25,0,0,1-.24.37h-.56a.26.26,0,0,1-.24-.16l-1-2.31h-5l-1,2.31a.26.26,0,0,1-.24.16h-.56A.25.25,0,0,1,89.35,28.5Zm6.65-3c-.68-1.52-1.35-3.06-2-4.59h-.11l-2,4.59Z"/><path class="cls-2" d="M100,19.33a.27.27,0,0,1,.26-.27h3.07a2.57,2.57,0,0,1,1.5,4.82,2.49,2.49,0,0,1,1.68,2.28,2.78,2.78,0,0,1-3,2.71h-3.2a.27.27,0,0,1-.26-.27Zm3.57,8.6a1.72,1.72,0,0,0,1.76-1.78,1.86,1.86,0,0,0-2-1.72H101v3.5Zm-.24-4.47A1.62,1.62,0,0,0,105,21.71,1.55,1.55,0,0,0,103.31,20H101v3.43Z"/><path class="cls-2" d="M108.73,19.33a.27.27,0,0,1,.26-.27h.55a.28.28,0,0,1,.27.27v8.6h4a.28.28,0,0,1,.27.27v.4a.28.28,0,0,1-.27.27H109a.27.27,0,0,1-.26-.27Z"/><path class="cls-2" d="M115.6,19.33a.27.27,0,0,1,.27-.27h5.52a.27.27,0,0,1,.26.27v.41a.26.26,0,0,1-.26.26h-4.71v3.42h4a.28.28,0,0,1,.27.27v.4a.27.27,0,0,1-.27.27h-4v3.57h4.71a.27.27,0,0,1,.26.27v.4a.27.27,0,0,1-.26.27h-5.52a.27.27,0,0,1-.27-.27Z"/></svg>